<svg id="Livello_1" data-name="Livello 1" xmlns="http://www.w3.org/2000/svg" viewBox="0 0 1000 1000"><defs><style>.cls-1{font-size:106.34px;font-family:PlayfairDisplay-SemiBold, Playfair Display;font-weight:600;}.cls-2{letter-spacing:-0.01em;}.cls-3{letter-spacing:-0.01em;}</style></defs><path d="M218.81,647c-32.64-2.07-100.83,11.47-109.73-9.19a11.32,11.32,0,0,1-.67-5.71C114.46,579.66,99.09,510,115,463a12.48,12.48,0,0,1,12.4-8.35C208.51,458,297.81,452,376.2,460.11a12.52,12.52,0,0,1,11.22,12.2c.41,19.84,2.24,57.67-4.74,54.42-214.85-2.91-112.5-22.38-151,111.19A12.54,12.54,0,0,1,218.81,647Z"/><path d="M386.25,561.43c8.8,116.82-12.37,89.78-92,86.93a29.44,29.44,0,0,1-28-27c-3.1-34.72-11.13-79.41,25.24-72.37C315.45,555.79,383.17,535.87,386.25,561.43Z"/><path d="M313.8,432.22c.54-66.1-14.1-111.09,53.64-100.28a24.41,24.41,0,0,1,20.67,24.12c-.25,63.82,20.67,100-71.82,85.94C311.94,442,313.78,434.67,313.8,432.22Z"/><path d="M181.7,393.82c-.45,24.74,7.91,52.42-23.8,47A83,83,0,0,0,145,439.63c-49.39-.57-29.92,7.84-32.66-71.84-.75-51.16-4-36.32,38.38-37.07a97,97,0,0,0,11.43-1c33-4.49,17.91,33.21,19.29,57.2C181.6,389.23,181.74,391.52,181.7,393.82Z"/><path d="M209.42,430.38c4.87-70.42-21.89-109.2,51.41-99.46a22.7,22.7,0,0,1,19.71,22.29c.46,41.73,18.67,101.27-36.31,87.91C233.12,438.09,205.37,448.7,209.42,430.38Z"/><text class="cls-1" transform="translate(441.93 416.92)">FIERA<tspan class="cls-2" x="0" y="115.62">D</tspan><tspan x="79.65" y="115.62">E</tspan><tspan class="cls-3" x="146.11" y="115.62">L</tspan><tspan x="0" y="231.23">MASTRO</tspan></text></svg>