<svg id="Livello_1" data-name="Livello 1" xmlns="http://www.w3.org/2000/svg" viewBox="215 175 575 645">
  <style>
    path { fill: #1c1b1b; }
    @media (prefers-color-scheme: dark) {
      path { fill: #fcf9f8; }
    }
  </style>
  <path d="M440.54,809.44c-64.83-4.11-200.24,22.79-217.91-18.25a22.31,22.31,0,0,1-1.33-11.34c12-104.1-18.51-242.47,13.12-335.89a24.77,24.77,0,0,1,24.63-16.57c161,6.82,338.38-5.25,494.06,10.95a24.86,24.86,0,0,1,22.29,24.22c.8,39.4,4.45,114.53-9.42,108.08-426.67-5.79-223.42-44.46-300,220.82A24.88,24.88,0,0,1,440.54,809.44Z"/><path d="M773.07,639.55c17.49,232-24.56,178.29-182.74,172.64-29.19-1.05-53.05-24.12-55.68-53.65-6.15-69-22.1-157.71,50.13-143.74C632.47,628.35,767,588.79,773.07,639.55Z"/><path d="M629.19,382.94c1.06-131.26-28-220.61,106.53-199.16a48.49,48.49,0,0,1,41,47.91c-.48,126.75,41.06,198.68-142.63,170.67C625.49,402.31,629.14,387.8,629.19,382.94Z"/><path d="M366.84,306.68c-.88,49.14,15.72,104.1-47.26,93.31A162.41,162.41,0,0,0,294,397.65c-98.08-1.12-59.42,15.59-64.86-142.66-1.49-101.61-7.89-72.14,76.23-73.62a194.19,194.19,0,0,0,22.71-2c65.6-8.91,35.55,66,38.3,113.6C366.65,297.56,366.92,302.11,366.84,306.68Z"/><path d="M421.89,379.3C431.57,239.44,378.42,162.43,524,181.77A45.09,45.09,0,0,1,563.15,226c.9,82.87,37.07,201.13-72.13,174.59C469,394.61,413.85,415.66,421.89,379.3Z"/>
</svg>
